<svg xmlns="http://www.w3.org/2000/svg" viewBox="0 0 32 32"  width="12" height="12">
    <!-- Green circular background -->
    <circle cx="16" cy="16" r="16" fill="green" />
    
    <!-- Black SVG path with padding -->
    <path d="M21.8906 16.846C21.5371 18.189 19.8667 19.138 16.5257 21.0361C13.296 22.8709 11.6812 23.7884 10.3798 23.4196C9.8418 23.2671 9.35159 22.9776 8.95624 22.5787C8 21.6139 8 19.7426 8 16C8 12.2574 8 10.3861 8.95624 9.42132C9.35159 9.02245 9.8418 8.73288 10.3798 8.58042C11.6812 8.21165 13.296 9.12907 16.5257 10.9639C19.8667 12.862 21.5371 13.811 21.8906 15.154C22.0365 15.7084 22.0365 16.2916 21.8906 16.846Z" stroke="black" stroke-width="1.5" stroke-linejoin="round" fill="none"/>
</svg>
